<svg width="19" height="17" viewBox="0 0 19 17" fill="none" xmlns="http://www.w3.org/2000/svg">
<path d="M1.64307 0.0644342C1.24841 0.144977 0.934297 0.322172 0.628234 0.628235C0.322171 0.926243 0.11276 1.29674 0.0402714 1.67529C0.00805429 1.82027 0 3.76135 0 8.19926C0 12.6372 0.00805429 14.5783 0.0402714 14.7232C0.201357 15.5126 0.869863 16.173 1.67529 16.3421C2.0619 16.4227 14.2964 16.4227 14.683 16.3421C15.5045 16.173 16.1247 15.5689 16.318 14.7635C16.3502 14.6105 16.3663 13.8856 16.3663 11.8881C16.3663 10.4142 16.3663 9.18189 16.3663 9.14162C16.3663 9.08524 16.3099 9.07718 15.8267 9.07718H15.287V11.6868C15.287 13.4184 15.2709 14.3527 15.2468 14.4816C15.1904 14.7555 15.0051 15.0051 14.7555 15.1501L14.546 15.2709L8.27981 15.279C1.30479 15.287 1.76389 15.3031 1.44977 15.0293C1.36117 14.9488 1.24841 14.7957 1.20814 14.6991L1.11955 14.5058V8.20732C1.11955 1.94914 1.11955 1.90081 1.20009 1.73167C1.29674 1.52226 1.47393 1.32896 1.67529 1.22425L1.82832 1.14371L6.90252 1.13565L11.9687 1.1276V0.555746V0H6.9428C2.74651 0.00805429 1.84443 0.0161085 1.64307 0.0644342Z" fill="#0B63E5"/>
<path d="M15.7056 0.555483C15.5687 0.5877 15.3593 0.660189 15.2304 0.716569C15.0774 0.789057 13.6357 1.84417 11.3322 3.56779C8.51316 5.67801 7.63525 6.35457 7.51443 6.51566C7.20837 6.90226 7.07145 7.23249 6.68484 8.55339C6.34656 9.6971 6.31434 9.82597 6.33045 10.0354C6.36267 10.422 6.6043 10.7361 6.95869 10.865C7.07145 10.9052 7.43389 10.9133 8.50511 10.9214C10.0435 10.9214 10.1965 10.9052 10.7361 10.6636C11.0503 10.5186 18.0494 5.29946 18.3555 4.97729C18.7421 4.56652 18.9998 3.88996 18.9998 3.29394C18.9998 2.13412 18.1541 0.974306 17.0668 0.619917C16.6802 0.507157 16.0842 0.47494 15.7056 0.555483ZM16.8655 1.73141C17.5984 2.06969 18.0494 2.98788 17.832 3.70471C17.7031 4.1477 17.7514 4.09937 14.7391 6.35457C13.1927 7.50633 11.9121 8.46479 11.8879 8.4809C11.8557 8.49701 11.5255 8.08624 10.8972 7.25665C10.1401 6.24986 9.96293 5.99213 10.0032 5.95991C10.0274 5.93575 11.308 4.96923 12.8544 3.82552C14.6989 2.44824 15.7056 1.7153 15.8265 1.68308C16.0842 1.57838 16.5836 1.61059 16.8655 1.73141ZM9.91461 7.8124C10.3898 8.44063 10.8086 9.00443 10.865 9.07692L10.9536 9.19773L10.6395 9.43131C10.124 9.80986 10.0596 9.82597 8.65009 9.82597C7.53859 9.82597 7.45805 9.82597 7.48221 9.75348C7.49027 9.72126 7.6433 9.2219 7.81244 8.6581C8.14267 7.54661 8.15877 7.50633 8.35208 7.27276C8.46484 7.13584 8.98837 6.6848 9.04475 6.6848C9.0528 6.66869 9.44746 7.18416 9.91461 7.8124Z" fill="#0B63E5"/>
</svg>
