<svg width="30" height="30" viewBox="0 0 30 30" fill="none" xmlns="http://www.w3.org/2000/svg">
<circle cx="15" cy="15" r="14.5" fill="white" stroke="#0B63E5"/>
<g clip-path="url(#clip0_42_11693)">
<path d="M19.0219 6.52737C18.9305 6.57659 17.7141 7.27971 16.3289 8.07424C13.6078 9.65628 8.925 12.3492 7.6875 13.0664C7.26562 13.3125 6.8789 13.5586 6.82265 13.6149C6.66797 13.7836 6.66094 13.9383 6.79453 14.2055L6.90703 14.4305L7.09687 14.2828L7.27969 14.1352L7.2164 14.0227L7.15312 13.9172L8.06719 13.3899C8.76328 12.9891 8.98828 12.8766 9.00937 12.9117C9.05859 12.9821 9.18515 13.3336 9.20625 13.4532C9.22031 13.5305 9.24141 13.5446 9.29766 13.5305C9.41719 13.4953 10.718 13.5094 11.0414 13.5516C11.5195 13.6149 12.075 13.7344 12.3281 13.8258C12.4547 13.875 12.5602 13.9032 12.5602 13.9032C12.5602 13.9032 12.525 13.7344 12.4758 13.5375C12.3492 13.0313 12.3422 12.3492 12.4547 11.9344C12.7289 10.9922 13.3687 10.4508 14.2477 10.4438C14.6203 10.4438 14.8875 10.493 15.2461 10.6407C16.1109 11.0063 16.9266 11.8782 17.3203 12.8555C17.5383 13.3969 17.6086 13.7625 17.6156 14.325C17.6156 14.6063 17.6227 14.8383 17.6297 14.8383C17.6297 14.8383 17.7562 14.8032 17.8969 14.768C18.5578 14.5852 19.9641 14.5078 20.7305 14.6203L21.0539 14.6696L22.1016 14.0649C22.6992 13.7203 23.1773 13.418 23.2195 13.3617C23.2687 13.2985 23.2898 13.2141 23.2898 13.1016C23.2898 12.9469 23.1492 12.7008 21.4617 9.77581C20.3508 7.85628 19.5984 6.59065 19.5422 6.55549C19.4016 6.42893 19.2187 6.42893 19.0219 6.52737ZM19.8164 7.83518C20.0977 8.31331 20.3227 8.72112 20.3227 8.72815C20.3227 8.74221 20.2453 8.7844 20.1469 8.82659C19.2187 9.22737 18.1781 8.94612 17.5875 8.14456C17.5172 8.04612 17.468 7.95471 17.4891 7.94768C17.5102 7.94065 17.918 7.70159 18.3961 7.42034C18.8742 7.13909 19.282 6.92112 19.2961 6.92815C19.3031 6.94924 19.5422 7.35003 19.8164 7.83518ZM19.2117 10.1414C19.493 10.2258 19.7883 10.5282 19.8727 10.8164C20.1258 11.6742 19.2469 12.4196 18.4523 12.0399C18.0797 11.8571 17.8758 11.5196 17.8758 11.1047C17.8758 10.7953 17.9883 10.5563 18.2273 10.3453C18.5016 10.0992 18.8461 10.0289 19.2117 10.1414ZM22.3125 12.1524C22.5867 12.6305 22.8187 13.0453 22.8187 13.0664C22.8187 13.1016 21.0961 14.1141 21.0398 14.1141C21.0187 14.1141 20.9695 14.0227 20.9203 13.9102C20.5969 13.1789 20.7445 12.293 21.2859 11.6813C21.4336 11.5196 21.7852 11.2453 21.8062 11.2735C21.7992 11.2735 22.0312 11.6742 22.3125 12.1524Z" fill="#0B63E5"/>
<path d="M13.6711 11.2594C13.5656 11.3438 13.5516 11.4844 13.6359 11.604C13.6922 11.6813 13.6852 11.6883 13.6008 11.7516C13.4812 11.85 13.3125 12.1243 13.2352 12.3493C13.0453 12.9399 13.4039 13.6852 13.9664 13.868C14.2406 13.9594 14.6695 13.9454 15.1828 13.8329C15.7102 13.7204 15.8719 13.7344 16.0477 13.9032C16.4484 14.304 16.0898 15 15.4781 15.0071C15.2883 15.0141 15.1336 14.9438 14.9227 14.7821C14.7469 14.6485 14.6344 14.6274 14.4797 14.6977C14.1492 14.8594 14.1844 15.2321 14.557 15.4711C14.9016 15.6891 15.3516 15.7383 15.7453 15.5977C15.8367 15.5696 15.907 15.5555 15.9141 15.5766C15.9562 15.6961 16.0758 15.7875 16.1883 15.7875C16.3852 15.7875 16.4766 15.5907 16.3711 15.4008C16.3289 15.3235 16.3359 15.3024 16.5187 15.1196C16.8 14.8383 16.9055 14.5922 16.9055 14.2125C16.9055 13.9383 16.8914 13.8821 16.793 13.6711C16.575 13.2282 16.2234 12.9961 15.7664 12.9961C15.668 12.9961 15.3516 13.0454 15.0633 13.1086C14.4937 13.2352 14.3742 13.2282 14.1703 13.0946C13.9805 12.968 13.8891 12.7993 13.8891 12.5883C13.8891 12.3563 14.0016 12.1524 14.1914 12.0399C14.4516 11.8922 14.6906 11.9485 14.9789 12.2086C15.1055 12.3282 15.1758 12.3633 15.2602 12.3633C15.5203 12.3633 15.7172 12.1032 15.6398 11.8641C15.5203 11.5055 14.775 11.2454 14.2617 11.386C14.1141 11.4282 14.093 11.4282 14.0648 11.3719C14.0016 11.2594 13.8961 11.175 13.8258 11.175C13.7906 11.1891 13.7203 11.2172 13.6711 11.2594Z" fill="#0B63E5"/>
<path d="M9.24844 14.0438C7.98281 14.2055 7.2375 14.5922 7.17422 15.1196C7.16016 15.225 7.15313 16.7016 7.16016 18.4102C7.17422 21.2508 7.17422 21.525 7.23047 21.6235C7.37109 21.8766 7.75078 22.1086 8.28516 22.2633C8.86875 22.4321 9.21328 22.4742 10.0992 22.4742C11.0484 22.4742 11.4773 22.425 12.082 22.2211C12.6516 22.0313 12.9609 21.7992 13.0383 21.5039C13.0945 21.3211 13.0945 15.1758 13.0383 14.993C12.9258 14.5922 12.3492 14.2828 11.3789 14.1071C10.9078 14.0297 9.67734 13.9875 9.24844 14.0438ZM11.3297 14.5922C11.9133 14.7047 12.5391 14.9719 12.5742 15.1266C12.6164 15.3516 11.8852 15.6469 11.0133 15.7594C10.5492 15.8157 9.50859 15.8086 9.06563 15.7383C8.45391 15.6469 7.78594 15.4008 7.68047 15.225C7.53984 14.993 8.23594 14.6907 9.22734 14.5571C9.67734 14.4938 10.9219 14.5149 11.3297 14.5922ZM8.15859 16.0336C8.70703 16.2024 9.13594 16.2586 9.95156 16.2797C11.0344 16.3078 11.7375 16.2024 12.3703 15.9211L12.5672 15.8297V16.2938C12.5672 16.7016 12.5602 16.7578 12.4969 16.8282C12.3281 16.9969 11.85 17.1727 11.2734 17.2782C11.0203 17.3274 10.7461 17.3414 10.1063 17.3414C9.38203 17.3414 9.21328 17.3344 8.86875 17.2641C8.27109 17.1446 7.93359 17.018 7.74375 16.8352C7.64531 16.7438 7.64531 16.7367 7.64531 16.2867V15.8297L7.77891 15.9C7.86328 15.9282 8.03203 15.9914 8.15859 16.0336ZM8.05313 17.5383C8.7 17.7774 9.74063 17.8899 10.6547 17.8266C11.4211 17.7703 11.9133 17.6578 12.518 17.4117C12.5742 17.3836 12.5813 17.4258 12.5813 17.8477C12.5813 18.375 12.5813 18.375 12.2438 18.5438C11.175 19.0782 8.61563 19.0078 7.8 18.4242L7.65938 18.3188V17.8547C7.65938 17.4258 7.65938 17.3907 7.72266 17.4117C7.75078 17.4258 7.90547 17.4821 8.05313 17.5383ZM8.44688 19.2117C8.60859 19.2539 8.86172 19.3032 9.00938 19.3313C9.375 19.3946 10.8305 19.3946 11.2242 19.3313C11.632 19.268 12.1383 19.1344 12.3773 19.0219L12.5742 18.9305V19.3875C12.5742 19.9078 12.5672 19.9219 12.2508 20.0836C11.7586 20.3367 11.1328 20.4352 10.1133 20.4352C9.4875 20.4352 9.23438 20.4211 8.95313 20.3719C8.34141 20.2594 7.94766 20.1117 7.75078 19.9289C7.65234 19.8375 7.65234 19.8305 7.65234 19.3805V18.9235L7.90547 19.0289C8.03906 19.0922 8.28516 19.1696 8.44688 19.2117ZM7.89844 20.5828C8.96016 21.0328 10.943 21.068 12.1102 20.6602C12.293 20.5969 12.4758 20.5266 12.5109 20.5125C12.5672 20.4844 12.5742 20.5266 12.5742 20.9485V21.4125L12.4547 21.5039C12.0539 21.8133 11.2102 21.9891 10.1625 21.9961C9.08672 22.0032 8.20781 21.8274 7.79297 21.525L7.64531 21.4196V20.9555C7.64531 20.6953 7.65234 20.4914 7.66641 20.4914C7.68047 20.4985 7.78594 20.5336 7.89844 20.5828Z" fill="#0B63E5"/>
<path d="M18.6422 15.1336C17.7 15.2742 17.032 15.5906 16.8562 15.9844C16.793 16.118 16.7859 16.3078 16.7859 19.282C16.7859 21.4125 16.8 22.4813 16.8281 22.5797C16.8773 22.7484 17.1164 22.9945 17.3484 23.1141C17.6086 23.2477 18.0727 23.3883 18.5367 23.4656C19.0992 23.5641 20.2594 23.5711 20.85 23.4867C21.9539 23.318 22.5797 22.9875 22.6781 22.5305C22.7062 22.3899 22.7133 21.4899 22.7062 19.1977C22.6922 15.682 22.7203 15.9633 22.425 15.7031C22.1297 15.4359 21.5391 15.2391 20.7305 15.1266C20.2102 15.0633 19.0992 15.0633 18.6422 15.1336ZM20.8078 15.6328C21.4758 15.7313 22.1648 16.0055 22.2 16.1883C22.2281 16.3359 21.8484 16.5539 21.3492 16.6805C20.7727 16.8211 20.5336 16.8422 19.6898 16.8422C18.818 16.8422 18.4594 16.8 17.9953 16.6453C17.5945 16.5117 17.2852 16.3289 17.2852 16.2234C17.2852 16.0125 17.918 15.7524 18.7266 15.6328C19.1977 15.5625 20.3437 15.5625 20.8078 15.6328ZM18.2695 17.2149C18.7758 17.3133 19.2469 17.3625 19.7883 17.3625C20.7445 17.3625 21.3844 17.243 22.1719 16.9125C22.207 16.8984 22.2141 17.0039 22.2141 17.3555V17.8195L22.0805 17.925C21.9047 18.0727 21.4336 18.2414 20.9344 18.3258C20.3648 18.4242 19.2398 18.4383 18.6633 18.3399C18.143 18.2555 17.6508 18.0938 17.4609 17.9531L17.3062 17.8336L17.2922 17.3695L17.2781 16.9055L17.5945 17.025C17.7703 17.0883 18.0727 17.1727 18.2695 17.2149ZM17.8406 18.6563C18.4172 18.832 18.7617 18.8742 19.7461 18.8742C20.4773 18.8742 20.7305 18.8602 21.0117 18.8039C21.4055 18.7336 21.8695 18.6 22.0734 18.4945L22.207 18.4242V18.8883C22.207 19.3383 22.207 19.3594 22.1156 19.4367C21.9328 19.6125 21.5391 19.7531 20.9414 19.8727C20.6812 19.9219 20.4422 19.9359 19.7461 19.9359C18.9727 19.9359 18.825 19.9219 18.4664 19.8516C18.0023 19.7602 17.6437 19.6336 17.4398 19.493L17.2992 19.3945L17.2852 18.9024L17.2711 18.4102L17.4047 18.4805C17.4961 18.5297 17.6789 18.607 17.8406 18.6563ZM17.4187 20.0484C17.5875 20.1328 17.9531 20.2453 18.2977 20.3227C19.5703 20.5828 21.1383 20.4633 22.1437 20.0203C22.2 19.9922 22.207 20.0344 22.207 20.4563C22.207 20.8852 22.207 20.9203 22.1297 20.9977C21.8766 21.2297 21.1172 21.4406 20.2734 21.5109C19.1766 21.5953 17.8828 21.3914 17.4469 21.0609L17.2992 20.9484L17.2852 20.4774C17.2781 20.2172 17.2852 20.0063 17.2992 20.0063C17.3133 20.0063 17.3695 20.0203 17.4187 20.0484ZM18.0164 21.7992C18.1922 21.8484 18.4594 21.9047 18.607 21.9328C18.9727 21.9961 20.5266 21.9961 20.8922 21.9328C21.293 21.8625 21.7781 21.7289 22.0102 21.6234L22.2141 21.532V21.9961C22.2141 22.5375 22.2141 22.5375 21.8062 22.7203C20.7867 23.1774 18.5719 23.1703 17.6367 22.6992C17.2852 22.5234 17.2852 22.5234 17.2852 21.9961V21.5391L17.4891 21.6305C17.6016 21.6727 17.8406 21.75 18.0164 21.7992Z" fill="#0B63E5"/>
<path d="M13.5797 17.25V18.9656L13.7836 18.8461C13.8961 18.7828 14.5078 18.4313 15.1406 18.0656L16.2867 17.4047V16.9477V16.4906L16.1531 16.5188C16.0758 16.5328 15.8508 16.5469 15.6398 16.5469C15.3164 16.5398 15.218 16.5258 14.9508 16.4344C14.557 16.2937 14.1422 16.0477 13.8187 15.7523L13.5656 15.5273L13.5797 17.25Z" fill="#0B63E5"/>
</g>
<defs>
<clipPath id="clip0_42_11693">
<rect width="18" height="18" fill="white" transform="translate(6 6)"/>
</clipPath>
</defs>
</svg>
