<svg width="30" height="30" viewBox="0 0 30 30" fill="none" xmlns="http://www.w3.org/2000/svg">
<circle cx="15" cy="15" r="14.5" fill="white" stroke="#0B63E5"/>
<path d="M23.1228 17.7894V15.9243H23.2631C23.9398 15.9243 24.4845 15.3796 24.4845 14.7029C24.4845 14.0262 23.9398 13.4815 23.2631 13.4815H6.22139C5.54467 13.4815 5 14.0262 5 14.7029C5 15.3796 5.54467 15.9243 6.22139 15.9243H6.36169V17.7894C5.64371 17.8967 5.09903 18.5156 5.09903 19.2584C5.09903 20.0011 5.65196 20.62 6.36169 20.7273V23.1123C6.36169 23.8056 6.93112 24.375 7.62434 24.375H21.8601C22.5534 24.375 23.1228 23.8056 23.1228 23.1123V20.7273C23.8408 20.62 24.3855 20.0011 24.3855 19.2584C24.3855 18.5239 23.8325 17.9049 23.1228 17.7894ZM22.281 17.9049C22.248 17.9214 22.2233 17.9297 22.1985 17.9462L20.1766 15.9325H22.281V17.9049ZM23.6427 14.7112C23.6427 14.9257 23.4694 15.099 23.2548 15.099H19.3513L18.5756 14.3233H23.2548C23.4694 14.3233 23.6427 14.4966 23.6427 14.7112ZM17.3955 14.3233L18.1712 15.099H11.3133L12.089 14.3233H17.3955ZM5.83352 14.7112C5.83352 14.4966 6.00682 14.3233 6.22139 14.3233H10.9006L10.1249 15.099H6.22139C6.00682 15.099 5.83352 14.9257 5.83352 14.7112ZM9.29963 15.9325L7.27773 17.9462C7.25297 17.9297 7.21996 17.9214 7.1952 17.9049V15.9243L9.29963 15.9325ZM5.9243 19.2666C5.9243 18.9035 6.22139 18.6146 6.57625 18.6146C6.93937 18.6146 7.22821 18.9117 7.22821 19.2666C7.22821 19.6297 6.93112 19.9186 6.57625 19.9186C6.22139 19.9186 5.9243 19.6297 5.9243 19.2666ZM21.8519 23.5497H19.7887V19.5307C19.7887 19.2996 19.5989 19.1098 19.3678 19.1098C19.1368 19.1098 18.947 19.2996 18.947 19.5307V23.5497H15.1507V17.3768C15.1507 17.1457 14.9609 16.9559 14.7299 16.9559C14.4988 16.9559 14.309 17.1457 14.309 17.3768V23.5497H10.5458V19.5307C10.5458 19.2996 10.356 19.1098 10.1249 19.1098C9.89382 19.1098 9.70401 19.2996 9.70401 19.5307V23.5497H7.62434C7.38501 23.5497 7.1952 23.3599 7.1952 23.1206V20.62C7.71512 20.389 8.06998 19.8691 8.06998 19.2666C8.06998 19.0025 7.99571 18.7467 7.87192 18.5321L10.4715 15.9325H18.9965L21.5961 18.5321C21.4723 18.7467 21.398 19.0025 21.398 19.2666C21.398 19.8691 21.7611 20.389 22.2728 20.62V23.1206C22.281 23.3599 22.0912 23.5497 21.8519 23.5497ZM22.9 19.9186C22.5369 19.9186 22.248 19.6215 22.248 19.2666C22.248 18.9035 22.5451 18.6146 22.9 18.6146C23.2631 18.6146 23.5519 18.9117 23.5519 19.2666C23.5519 19.6297 23.2548 19.9186 22.9 19.9186Z" fill="#0B63E5"/>
<path d="M12.0394 10.3538H12.7657V12.1611C12.7657 12.6315 13.1453 13.0111 13.6157 13.0111H15.6458C16.1162 13.0111 16.4958 12.6315 16.4958 12.1611V10.3538H17.2221C17.6347 10.3538 17.9483 10.1887 18.0804 9.89987C18.2124 9.61103 18.1464 9.26441 17.8823 8.95081L15.5385 6.0789C15.3075 5.79005 14.9691 5.625 14.6225 5.625C14.2759 5.625 13.9458 5.79005 13.7065 6.0789L11.371 8.95081C11.1069 9.27267 11.0409 9.61928 11.1729 9.89987C11.3132 10.1887 11.6268 10.3538 12.0394 10.3538ZM11.9817 9.52025L14.3584 6.60706C14.4327 6.51629 14.5317 6.45852 14.6225 6.45852C14.7215 6.45852 14.8123 6.50803 14.8866 6.60706L17.2633 9.52025H16.075C15.8439 9.52025 15.6541 9.71006 15.6541 9.94113V12.1693C15.6541 12.1776 15.6458 12.1859 15.6376 12.1859H13.5992C13.5909 12.1859 13.5827 12.1776 13.5827 12.1693V9.94113C13.5827 9.71006 13.3929 9.52025 13.1618 9.52025H11.9817Z" fill="#0B63E5"/>
</svg>
