<svg width="24" height="24" viewBox="0 0 24 24" fill="none" xmlns="http://www.w3.org/2000/svg">
<rect x="0.499023" y="0.5" width="23" height="23" rx="11.5" fill="#27AE60" fill-opacity="0.2" stroke="#0E8115"/>
<path d="M11.293 5.29299C11.6835 4.90234 12.3176 4.90234 12.7081 5.29299L17.7062 10.2933C18.0966 10.6839 18.0966 11.3183 17.7062 11.709C17.3157 12.0996 16.6816 12.0996 16.2911 11.709L12.9986 8.41191L12.9986 17.9999C12.9986 18.5531 12.5519 19 11.999 19C11.4461 19 10.9994 18.5531 10.9994 17.9999L10.9994 8.41504L7.70695 11.7058C7.31648 12.0965 6.68235 12.0965 6.29188 11.7058C5.90141 11.3152 5.90141 10.6808 6.29188 10.2901L11.2899 5.28986L11.293 5.29299Z" fill="#0E8115"/>
</svg>
