<svg width="30" height="30" viewBox="0 0 30 30" fill="none" xmlns="http://www.w3.org/2000/svg">
<circle cx="15" cy="15" r="14.5" fill="white" stroke="#0B63E5"/>
<path d="M13.2238 7.33286C7.18334 7.6577 6.67288 7.69637 6.51046 7.77371C6.28617 7.88973 6.20109 7.98254 6.08508 8.2455L6 8.45432L6.20109 12.2982C6.30937 14.4097 6.40991 16.2195 6.43312 16.3046C6.48726 16.6371 6.89717 17.0161 7.20654 17.0161C7.29935 17.0161 7.30708 16.9929 7.30708 16.6758C7.30708 16.3896 7.29161 16.3278 7.21427 16.2581C7.12146 16.1885 7.11373 16.0261 6.92037 12.3601C6.72702 8.68635 6.71928 8.53167 6.79662 8.45432C6.86623 8.39245 7.65512 8.33831 13.3862 8.03668C19.4807 7.71957 19.8984 7.69637 19.968 7.77371C20.0299 7.83559 20.0531 8.02894 20.0917 8.79463C20.1149 9.31282 20.1381 9.78461 20.1381 9.83875C20.1381 9.93929 20.1536 9.93929 20.5017 9.93929C20.8497 9.93929 20.8652 9.93156 20.8652 9.83875C20.8574 9.78461 20.8342 9.27415 20.8033 8.69408C20.7414 7.69637 20.7337 7.64223 20.6254 7.44888C20.4939 7.21685 20.2155 7.03123 19.9448 7.00029C19.8365 6.99256 16.8202 7.13951 13.2238 7.33286Z" fill="#0B63E5"/>
<path d="M8.2274 10.3956C8.12685 10.442 7.99537 10.5348 7.92576 10.6044C7.64733 10.8983 7.6628 10.705 7.6628 14.9974C7.6628 18.7253 7.67053 18.9342 7.74787 19.112C7.79428 19.2126 7.88709 19.3441 7.9567 19.4137C8.2506 19.6921 8.04951 19.6766 12.4348 19.6766C16.0699 19.6766 16.4489 19.6689 16.4179 19.607C16.4025 19.5684 16.3947 19.4059 16.3947 19.2435V18.9574H12.4503C9.43393 18.9574 8.48262 18.9419 8.44395 18.9032C8.40528 18.8646 8.38981 18.3232 8.38981 16.7454V14.6417H15.049H21.7159V15.7245V16.8073L21.8396 16.8305C22.0639 16.8769 22.3037 16.9465 22.3733 16.9697C22.4274 16.9851 22.4351 16.5907 22.4351 14.0307C22.4351 11.2386 22.4274 11.053 22.3501 10.8828C22.2495 10.6586 22.0639 10.4807 21.8396 10.3956C21.6927 10.3337 20.9347 10.326 15.0412 10.326C8.68371 10.3105 8.39755 10.3105 8.2274 10.3956ZM21.6617 11.0839C21.7004 11.1226 21.7159 11.5093 21.7159 12.5225V13.9069H15.049H8.38981V12.5225C8.38981 11.5016 8.40528 11.1226 8.44395 11.0839C8.51356 11.0066 21.5844 11.0066 21.6617 11.0839Z" fill="#0B63E5"/>
<path d="M19.3958 17.1475C18.5064 17.3099 17.818 17.6115 17.3308 18.0601C16.9131 18.4314 16.7894 18.7175 16.7894 19.2203C16.7894 19.5528 16.8048 19.6379 16.9208 19.8545C17.4545 20.8599 19.2643 21.5173 21.0587 21.3472C22.2575 21.2312 23.1392 20.8908 23.727 20.303C24.6396 19.4059 24.2916 18.2225 22.9149 17.5574C21.9868 17.1088 20.5637 16.9387 19.3958 17.1475ZM21.863 17.9364C22.621 18.1375 23.3016 18.5628 23.4563 18.9418C23.6883 19.4987 23.1933 20.0556 22.1801 20.4036C20.6874 20.9063 18.7307 20.6666 17.849 19.8777C17.5628 19.6224 17.4854 19.4755 17.4854 19.2125C17.4854 18.7562 17.9882 18.3076 18.8003 18.0369C19.4035 17.8358 19.7748 17.7817 20.641 17.8049C21.3061 17.8126 21.4918 17.8358 21.863 17.9364Z" fill="#0B63E5"/>
<path d="M16.7659 20.5971C16.7659 21.1539 17.2841 21.7649 18.073 22.1439C18.7768 22.492 19.3028 22.6002 20.2773 22.6312C20.8728 22.6466 21.1667 22.6389 21.4993 22.5848C23.0461 22.3295 24.098 21.5871 24.2217 20.6435L24.2449 20.4192L23.8737 20.7672C23.0848 21.5174 21.9401 21.8964 20.517 21.8964C19.0243 21.9042 17.7868 21.471 16.998 20.6822L16.7582 20.4424V20.5971H16.7659Z" fill="#0B63E5"/>
<path d="M16.7739 21.9892C16.7894 22.1516 16.8512 22.345 16.944 22.5228C17.4313 23.4432 19.1019 24.0774 20.7957 23.9923C22.6906 23.8918 24.0982 23.0565 24.2219 21.9737L24.2451 21.7339L24.0518 21.9505C23.5181 22.546 22.5436 23.0101 21.4763 23.1725C19.7052 23.4355 17.8721 22.9482 16.9672 21.9814L16.743 21.7494L16.7739 21.9892Z" fill="#0B63E5"/>
</svg>
