<svg width="24" height="24" viewBox="0 0 24 24" fill="none" xmlns="http://www.w3.org/2000/svg">
<rect x="23.4999" y="0.5" width="23" height="23" rx="11.5" transform="rotate(90 23.4999 0.5)" fill="#888888" fill-opacity="0.2" stroke="#666666"/>
<path d="M18.707 11.294C19.0976 11.6845 19.0976 12.3186 18.707 12.7091L13.7067 17.7071C13.316 18.0976 12.6816 18.0976 12.291 17.7071C11.9003 17.3167 11.9003 16.6825 12.291 16.2921L15.588 12.9996L6 12.9996C5.44685 12.9996 4.99995 12.5529 4.99995 12C4.99995 11.4471 5.44685 11.0004 6 11.0004L15.5849 11.0004L12.2941 7.70793C11.9035 7.31746 11.9035 6.68333 12.2941 6.29285C12.6847 5.90238 13.3192 5.90238 13.7098 6.29285L18.7101 11.2909L18.707 11.294Z" fill="#666666"/>
</svg>
