<svg width="24" height="24" viewBox="0 0 24 24" fill="none" xmlns="http://www.w3.org/2000/svg">
<rect x="23.5" y="23.5" width="23" height="23" rx="11.5" transform="rotate(-180 23.5 23.5)" fill="#EB5757" fill-opacity="0.2" stroke="#EB5757"/>
<path d="M12.706 18.707C12.3155 19.0977 11.6814 19.0977 11.2909 18.707L6.29285 13.7067C5.90238 13.3161 5.90238 12.6817 6.29285 12.291C6.68333 11.9004 7.31745 11.9004 7.70793 12.291L11.0004 15.5881L11.0004 6.00006C11.0004 5.4469 11.4471 5 12 5C12.5529 5 12.9996 5.4469 12.9996 6.00006L12.9996 15.585L16.2921 12.2942C16.6825 11.9035 17.3167 11.9035 17.7071 12.2942C18.0976 12.6848 18.0976 13.3192 17.7071 13.7099L12.7091 18.7101L12.706 18.707Z" fill="#EB5757"/>
</svg>
