<svg width="30" height="30" viewBox="0 0 30 30" fill="none" xmlns="http://www.w3.org/2000/svg">
<circle cx="15" cy="15" r="14.5" fill="white" stroke="#0B63E5"/>
<path d="M8.53124 9.01641C8.36249 10.2891 8.22187 11.3859 8.21484 11.4562C8.20078 11.5758 8.18671 11.5898 8.05312 11.6461C7.87031 11.7234 7.65234 11.9344 7.5539 12.1383L7.47656 12.293L7.46953 17.5102C7.46249 23.332 7.4414 22.8891 7.68749 23.1141C7.75781 23.1773 7.87031 23.2406 7.93359 23.2617C8.01796 23.2898 10.0219 23.2969 14.3883 23.2969C21.3281 23.2969 20.8359 23.3109 21.0469 23.107C21.2648 22.9031 21.2648 22.8961 21.2648 21.6586V20.5406H21.4617C21.7148 20.5406 21.8766 20.4703 21.9328 20.3297C22.0031 20.1609 21.9961 16.0547 21.9328 15.893C21.8766 15.7523 21.7289 15.682 21.4617 15.682H21.2578V14.8805V14.0789L21.9047 13.2422C22.2562 12.7781 22.5445 12.3914 22.5375 12.3773C22.5305 12.3633 21.8625 11.85 21.0539 11.2242L19.5773 10.0992L19.6687 9.87422C19.718 9.74766 19.7531 9.64219 19.7531 9.63516C19.7461 9.62812 19.3805 9.46641 18.9305 9.29062C18.4875 9.10781 18.0867 8.93906 18.0445 8.91797C18.0023 8.89687 17.6508 8.63672 17.2711 8.34141C16.8914 8.05312 16.5609 7.8 16.5398 7.79297C16.5187 7.78594 16.4555 7.83516 16.4133 7.89844L16.3219 8.025L16.343 7.86328L16.3641 7.70156L15.4219 7.575L14.4797 7.45547L13.6289 7.09688C13.1578 6.9 12.7641 6.74531 12.757 6.74531C12.743 6.74531 12.6937 6.84375 12.6445 6.96328C12.5953 7.08984 12.5531 7.18828 12.5461 7.19531C12.5461 7.20234 9.2414 6.78047 8.93906 6.73125L8.83359 6.70312L8.53124 9.01641ZM10.8094 7.65938C11.5547 7.75781 12.1875 7.84219 12.2086 7.84219C12.2648 7.84219 12.2578 7.89141 12.2016 8.05313L12.1523 8.18672L11.4633 8.10234C11.0906 8.05313 10.7672 8.01797 10.7531 8.025C10.7391 8.03203 10.725 8.06719 10.725 8.10938C10.725 8.20781 10.5703 8.48203 10.4437 8.60859C10.2891 8.76328 10.0219 8.88281 9.78281 8.90391C9.64218 8.91797 9.58593 8.93906 9.57187 8.97422C9.56484 9.00234 9.44531 9.90234 9.30468 10.9781L9.05156 12.9328H8.88281C8.7914 12.9328 8.71406 12.9258 8.71406 12.9047C8.71406 12.8625 9.39609 7.63125 9.41718 7.56094C9.42421 7.51875 9.43828 7.49063 9.43828 7.49063C9.44531 7.48359 10.0641 7.56797 10.8094 7.65938ZM14.4727 8.18672L15.7805 8.72812L15.682 8.86875C15.6258 8.94609 15.5766 9.00937 15.5695 9.00937C15.5625 9.00937 15.2742 8.88984 14.9297 8.74922C14.5852 8.60859 14.2969 8.48906 14.2828 8.48906C14.2758 8.48906 14.2336 8.55234 14.1844 8.63672C14.0789 8.8125 13.8539 8.98828 13.643 9.05859C13.4812 9.11484 13.0805 9.11484 12.968 9.05859C12.9258 9.04453 12.8344 9.23437 12.4828 10.0852C12.2437 10.6617 11.8852 11.5336 11.6812 12.0328L11.3086 12.9328H11.1187H10.9359L12.0258 10.2891C12.6234 8.84063 13.1297 7.64531 13.1437 7.64531C13.1508 7.64531 13.7555 7.89141 14.4727 8.18672ZM11.857 8.85469C11.8641 8.86172 11.4914 9.77578 11.0273 10.8867L10.1906 12.9117L9.97265 12.9188L9.75468 12.9258L9.76874 12.8203C9.78281 12.7641 9.87421 12.0258 9.97968 11.1891C10.0922 10.3523 10.1836 9.63516 10.1906 9.6C10.1977 9.55781 10.268 9.50859 10.3875 9.45938C10.6336 9.35391 10.9289 9.13594 11.0836 8.925L11.2172 8.75625L11.5336 8.79844C11.7023 8.82656 11.85 8.85469 11.857 8.85469ZM19.0148 10.5352C20.2734 11.4984 21.3703 12.3352 21.4477 12.3984L21.5812 12.5109L21.4828 12.6445C21.4266 12.7219 21.3141 12.8625 21.2367 12.975L21.0891 13.1648L21.0187 13.0945C20.8922 12.975 20.7234 12.9258 20.4141 12.9258C20.0906 12.9258 20.1117 12.9398 20.0695 12.6797C20.0414 12.525 20.1187 12.1945 20.2102 12.0398L20.2734 11.9414L18.9094 10.9008L17.5453 9.86016L17.4258 9.97266C17.1937 10.1836 17.0602 10.2328 16.7156 10.2328C16.4414 10.2328 16.3852 10.2258 16.2375 10.1484L16.0687 10.057L14.9719 11.4844C14.3883 12.2578 13.875 12.9117 13.8539 12.9188C13.8328 12.9258 13.7344 12.9258 13.6359 12.9188L13.4531 12.9117L15.0492 10.8305C15.9633 9.63516 16.6594 8.75625 16.6805 8.76328C16.7016 8.77031 17.7492 9.56484 19.0148 10.5352ZM14.8172 9.45234C15.0211 9.53672 15.1055 9.58594 15.0914 9.61406C15.0844 9.64219 14.5148 10.3945 13.8258 11.2945L12.5672 12.9258H12.3141H12.0609L12.0961 12.8414C12.1242 12.7711 13.3336 9.83906 13.3406 9.825C13.3406 9.825 13.4461 9.80391 13.5656 9.78281C13.875 9.73359 14.107 9.64219 14.325 9.47344C14.4305 9.39609 14.5148 9.33281 14.5219 9.33281C14.5148 9.33281 14.6555 9.38906 14.8172 9.45234ZM18.5227 11.4633L19.3945 12.1383V12.5391V12.9328H17.0672H14.7398L14.993 12.6023C15.1336 12.4195 15.4852 11.9625 15.7805 11.5828C16.1602 11.0836 16.3219 10.9008 16.3641 10.9078C16.6312 10.9852 17.0602 10.95 17.3695 10.8164C17.482 10.7742 17.5734 10.7531 17.6016 10.7672C17.6227 10.7742 18.0375 11.0906 18.5227 11.4633ZM20.5828 14.6484V15.682H18.8531H17.1234L16.8141 16.0969C16.1039 17.0461 15.7523 17.7141 15.7523 18.1078C15.7523 18.5227 16.0898 19.1625 16.8141 20.1328L17.1234 20.5477H18.8531H20.5828V21.5813V22.6148H14.3602H8.13749V18.1078V13.6008H14.3602H20.5828V14.6484ZM21.2578 18.1148V19.8305H19.3523H17.4469L17.25 19.5633C16.7789 18.9234 16.4484 18.3258 16.4484 18.1148C16.4484 17.9039 16.8211 17.243 17.2852 16.6172L17.4539 16.3992H19.3594H21.2578V18.1148Z" fill="#0B63E5"/>
<path d="M18.2344 17.1094C18.0375 17.1727 17.7844 17.3555 17.6789 17.5102C17.3062 18.0516 17.482 18.7406 18.0656 19.043C18.2133 19.1203 18.2766 19.1344 18.5086 19.1344C18.7336 19.1344 18.8109 19.1203 18.9445 19.057C19.1484 18.9516 19.3664 18.7336 19.4578 18.5437C19.5562 18.3328 19.5562 17.9039 19.4578 17.6859C19.3734 17.4891 19.1484 17.2711 18.9516 17.1727C18.7687 17.0883 18.3961 17.0531 18.2344 17.1094ZM18.7266 17.8336C18.8391 17.9109 18.8883 18.1008 18.825 18.2414C18.7687 18.382 18.5859 18.4805 18.4523 18.4523C18.3047 18.4172 18.1781 18.2695 18.1781 18.1148C18.1711 17.8266 18.4805 17.6719 18.7266 17.8336Z" fill="#0B63E5"/>
</svg>
